<?xml version="1.0" encoding="UTF-8"?>
<svg id="Camada_2" data-name="Camada 2" xmlns="http://www.w3.org/2000/svg" viewBox="0 0 1573.18 391.67">
  <defs>
    <style>
      .cls-1 {
        fill: #1d1d1b;
      }

      .cls-2 {
        fill: #fff;
      }
    </style>
  </defs>
  <g id="Camada_1-2" data-name="Camada 1">
    <g>
      <path d="M391.38,195.85c0,108.15-87.62,195.82-195.68,195.82S0,304,0,195.85,87.62,0,195.7,0s195.68,87.69,195.68,195.85"/>
      <path class="cls-2" d="M334.38,232.5c-3.83-.09-16.25,10.05-20.11,15.01-2.2,1.79-4.51,19.23-2.37,22.59,8.95,13.94,13.4-5.83,15.35-10.52,1.79-4.25,6.62-6.69,6.73-11.49.12-5.21.25-10.39.4-15.59"/>
      <path class="cls-2" d="M303.54,216.57c-7.52,9.5-15.73,14.81-25.76,21.74-10.5,7.23-14.26,4.46-20.5-6.88-9.1,9.31-9.56,18.72-3.55,30.69,1.43,2.82,2.34.38,4.44,5.18.99,2.28.79,2.26,1.75,4.59,4.03,9.79,2.75,10.93,13.31,10.08,12.38-.97,21.72-12,26.24-23.75,1.14-3,6.13-8.28,5.92-10.85-.53-6.38-.47-11.64,3.83-15.99-3.36-3.3-6.14-10.16-5.66-14.81"/>
      <path class="cls-2" d="M161.65,152.57c4.37,13.5,12.7-8.47,16.45-13.25,3.97-5.07,7.71-9.5,12.15-12.5,3.07-2.11,9.03-3.88,11.1-6.31,8.47-9.85,25.25-1.09,25.25,11.56,0,13.36-11.19,21.81-19.47,31.95,3.83-3.42,6.41-1.67,11.84.09,7.18,2.32,12.73-1.69,19.7-4.4,12.78-5.02,24.53-13.61,36.38-20.52-1.18,5.6-3.36,13.41-4.53,19.02,5.99-2.93,16.23-4.45,23.28-5.01,3.27-.27,6.94.87,10.15,1.39,7.87,1.25,3.59-2.45,9.78-4.88,7.29-2.88,13.74-3.55,22.6-4.45,8.93-.91,6.93-16.02-1.39-15.56-2.51.13-12.44,12.45-17.16,6.72-2.82-3.42-3.61-3.78-5.85-6.53-2.23-2.75-5.4-2.76-6.87-5.17-4.06-6.65-1.67-12-8.12-18.7-1.91-2-5.3-3.32-7.53-6.24-2.24-2.92-3.02-7.65-2.93-10.83.18-5.85-5.9-6.36-11.52-4.99-6.36,1.55-12.34-1.62-19.94-.34-3.88.65-5.28,4.49-9.11,3.09-4.98-1.81-7.75-3.43-12.75-5.19-8.93-3.13.28-11.99-14.22-11.69-4.04.1-17.96,3.6-21.62,5.69-3.22,1.82-6.34,3.86-9.57,5.67-.65.36-7.97,3.31-9.93,4.97-1.96,1.67-4.28,7.78-6,11.23-1.72,3.43-5.94,5.03-8.98,6.55-11.34,5.69-3.43,38.51-1.21,48.65"/>
      <path class="cls-2" d="M206.83,173.57c-13.29,7.59-25.59,19.69-33.74,32.49-4.45,6.99-8.51,14.26-14.02,20.48-6.63,7.47-3.04,16.41-2.07,26.14.95-1.91,3.16-3.22,4.26-5,7.84,9.01,13.02,17.63,25.17,20.32,9.49,2.08,24.67,6.99,24.67-7.12,0-28.55,1.78-55.37,4.99-83.75-3.83,1.2-6.9-.11-9.26-3.55"/>
      <path class="cls-2" d="M158.42,217.02c6.22-11.66,7.04-22.82,5.69-35.61-1.57,3.91-4.4,5.83-8.54,5.69-1.9-21.71-3.78-43.45-5.68-65.16-.84-9.69-48.59-2.35-47.2,14.5.46,5.55-10.12,15.62-14.52,19.04-11.55,8.98-10.82,14.67-13.49,29.33-2.82,15.58-7.21,49.87-28.76,47.2-1.73,10.84,11.45,16.9,10.35,28.36-1.16,12.07-2.67,23.8-4.65,35.74,16,3.42,20.47-26.14,22.57-39.3.21-1.38,38.38-16.51,42.22-18.42,1.19,13.31,2.36,26.6,3.55,39.92,3.68-9.06,8.83-2,7.94-13.53-.38-4.88,10.06-11.94,13.78-14.98,10.97-9.05-.33-26.21,16.73-32.78M96.47,214.18c-4.27,1.68-8.53,3.33-12.82,4.99,7.16-13.86,19.3-32.86,18.52-49.14,5.72,7.34,5.07,16.39,5.88,25.22,1.31,14.17,1.59,13.07-11.59,18.93"/>
      <path class="cls-2" d="M212.57,125.14c-4.08-.71-19.25,7.3-22.18,11-5.67,7.21-14.36,28.44-23.39,28.16,6.08,4.79,10.62,8.09,17.78,10.85,2.97,1.15,7.94-7.53,10.17-10.27,8.99-10.97,30.31-25.6,17.62-39.74"/>
      <path class="cls-2" d="M319.32,155.05c-10.76,12.75-14.97,5.56-30.24,6.77-16.32,1.33-18.49,7.6-28.85,20.31-.53-9.7.14-16.85,2.14-26.36-9.74,5.68-18.75,10.63-29.22,14.71-8.61,3.39-11.09,17.48-12.26,26.26-3.01,22.51-3.15,45.36-1.94,68.04,14.66.76,17.79-14.79,22.85-25.61,4.7-10.03,14.27-18.59,21.28-27.1,1.55,18.45,1.77,24.58,18.46,13.07,11.66-8.06,19-19.06,27.82-30.19.99,12.07-.21,23.13,6.96,32.98,8.61,11.84,14.7-13.47,16.09-14.42,21.49-14.68,20.11-37.57,21.82-62.01-11.63,1.18-23.26,2.37-34.89,3.55"/>
      <path class="cls-1" d="M477.36,234.71h-24.98v96.97h24.98v-96.97ZM581.24,331.68v-96.97h-25.14v53.35l-39.22-53.35h-25.72v96.97h24.99v-56.12l40.97,56.12h24.12ZM658.96,331.68v-21.81h-38.94v-75.16h-24.98v96.97h63.92ZM762.4,331.68l-36.61-96.97h-31.38l-36.46,96.97h28.33l4.8-13.96h38.2l4.8,13.96h28.33ZM722.44,295.92h-24.69l12.35-36.49,12.34,36.49ZM855.95,331.68v-96.97h-25.14v53.35l-39.23-53.35h-25.71v96.97h24.98v-56.12l40.97,56.12h24.12ZM910.58,331.68c30.37,0,52.3-18.46,52.3-48.56s-21.93-48.41-52.45-48.41h-40.68v96.97h40.83ZM910.43,309.87h-15.69v-53.35h15.84c17.72,0,26.73,11.63,26.73,26.6s-9.88,26.75-26.88,26.75M1115.26,331.68v-96.97h-34.72l-20.35,52.63-20.18-52.63h-34.73v96.97h24.99v-63.09l24.41,63.09h11.04l24.55-63.09v63.09h24.98ZM1154.06,234.71h-24.98v96.97h24.98v-96.97ZM1203.88,333.42c26.01,0,40.39-12.93,40.39-32.42,0-36.05-54.77-27.04-54.77-39.4,0-4.08,3.19-6.98,10.46-6.98,9.59,0,20.18,3.34,28.32,10.03l13.66-17.89c-10.31-8.87-23.82-13.52-39.37-13.52-24.84,0-38.64,14.53-38.64,30.82,0,37.37,54.91,26.75,54.91,39.98,0,4.65-5.23,8.01-13.8,8.01-13.22,0-23.97-5.82-30.94-12.8l-13.23,18.75c9.74,9.3,23.39,15.41,43,15.41M1288.29,333.42c26.01,0,40.39-12.93,40.39-32.42,0-36.05-54.76-27.04-54.76-39.4,0-4.08,3.18-6.98,10.46-6.98,9.58,0,20.19,3.34,28.32,10.03l13.66-17.89c-10.31-8.87-23.82-13.52-39.37-13.52-24.84,0-38.64,14.53-38.64,30.82,0,37.37,54.91,26.75,54.91,39.98,0,4.65-5.24,8.01-13.81,8.01-13.21,0-23.97-5.82-30.94-12.8l-13.22,18.75c9.73,9.3,23.39,15.41,43,15.41M1361.66,234.71h-24.98v96.97h24.98v-96.97ZM1422.38,333.42c29.63,0,51.71-20.64,51.71-50.15s-22.08-50.16-51.71-50.16-51.86,20.65-51.86,50.16,22.22,50.15,51.86,50.15M1422.38,311.32c-16.12,0-26.44-12.36-26.44-28.05s10.32-28.06,26.44-28.06,26.3,12.21,26.3,28.06-10.31,28.05-26.3,28.05M1573.18,331.68v-96.97h-25.14v53.35l-39.22-53.35h-25.72v96.97h24.99v-56.12l40.97,56.12h24.12Z"/>
      <path class="cls-1" d="M594.27,201.88l-53.61-141.99h-45.94l-53.4,141.99h41.49l7.02-20.44h55.95l7.03,20.44h41.48ZM535.78,149.5h-36.17l18.08-53.44,18.09,53.44ZM635.96,201.88v-55.99h65.95v-31.93h-65.95v-22.14h67.44v-31.92h-104.03v141.99h36.58ZM838.9,201.88l-28.93-52.16c13.19-4.68,28.29-17.88,28.29-42.57,0-26.4-17.87-47.26-49.35-47.26h-71.06v141.99h36.59v-47.69h18.71l23.83,47.69h41.91ZM783.38,122.25h-28.93v-30.44h28.93c9.57,0,17.66,5.54,17.66,15.12s-8.08,15.32-17.66,15.32M889.74,59.89h-36.59v141.99h36.59V59.89ZM979.51,204.42c34.25,0,52.76-19.79,61.91-38.1l-31.49-14.9c-4.68,11.28-16.8,20.65-30.42,20.65-23.18,0-39.57-17.88-39.57-41.09s16.39-41.08,39.57-41.08c13.62,0,25.74,9.37,30.42,20.65l31.49-14.9c-9.36-18.74-27.66-38.12-61.91-38.12-43.61,0-76.79,29.59-76.79,73.45s33.18,73.44,76.79,73.44M1187.98,201.88l-53.61-141.99h-45.94l-53.4,141.99h41.49l7.02-20.44h55.95l7.03,20.44h41.48ZM1129.48,149.5h-36.16l18.09-53.44,18.07,53.44Z"/>
    </g>
  </g>
</svg>